<?xml version="1.0" encoding="utf-8"?>
<!-- Generator: Adobe Illustrator 17.1.0, SVG Export Plug-In . SVG Version: 6.00 Build 0)  -->
<!DOCTYPE svg PUBLIC "-//W3C//DTD SVG 1.1//EN" "http://www.w3.org/Graphics/SVG/1.1/DTD/svg11.dtd">
<svg version="1.1" id="Layer_1" xmlns="http://www.w3.org/2000/svg" xmlns:xlink="http://www.w3.org/1999/xlink" x="0px" y="0px"
	 viewBox="0 0 32 31" enable-background="new 0 0 32 31" xml:space="preserve">
<path fill-rule="evenodd" clip-rule="evenodd" fill="#97C6C6" d="M30.7,9.5c-1.6-3.7-4.5-6.7-8.2-8.2c1-0.8,2.3-1.3,3.6-1.3
	C29.4,0,32,2.6,32,5.9C32,7.2,31.5,8.5,30.7,9.5z M30.5,16c0,3.9-1.5,7.3-4,9.9l2,2c0.3,0.3,0.4,0.6,0.4,1c0,0.8-0.7,1.5-1.5,1.5
	c-0.4,0-0.8-0.2-1-0.4l-2.2-2.2c-2.4,1.6-5.2,2.6-8.3,2.6c-3.1,0-5.9-1-8.3-2.6l-2.2,2.2c-0.3,0.3-0.6,0.4-1.1,0.4
	C3.7,30.5,3,29.8,3,29c0-0.4,0.2-0.8,0.4-1.1l2-2c-2.4-2.6-4-6.1-4-9.9C1.5,8,8,1.5,16,1.5S30.5,8,30.5,16z M16,4.5
	C9.6,4.5,4.5,9.6,4.5,16c0,6.4,5.1,11.5,11.5,11.5c6.4,0,11.5-5.1,11.5-11.5C27.5,9.6,22.4,4.5,16,4.5z M22,17.5h-6
	c-0.8,0-1.5-0.7-1.5-1.5V8c0-0.8,0.7-1.5,1.5-1.5c0.8,0,1.5,0.7,1.5,1.5v6.5H22c0.8,0,1.5,0.7,1.5,1.5S22.8,17.5,22,17.5z M1.3,9.7
	C0.5,8.7,0,7.4,0,6c0-3.3,2.7-6,6-6c1.4,0,2.7,0.5,3.7,1.3C5.9,2.9,2.9,5.9,1.3,9.7z"/>
</svg>
