<?xml version="1.0" encoding="utf-8"?>
<!-- Generator: Adobe Illustrator 17.1.0, SVG Export Plug-In . SVG Version: 6.00 Build 0)  -->
<!DOCTYPE svg PUBLIC "-//W3C//DTD SVG 1.1//EN" "http://www.w3.org/Graphics/SVG/1.1/DTD/svg11.dtd">
<svg version="1.1" id="Layer_1" xmlns="http://www.w3.org/2000/svg" xmlns:xlink="http://www.w3.org/1999/xlink" x="0px" y="0px"
	 viewBox="0 0 22 12" enable-background="new 0 0 22 12" xml:space="preserve">
<path fill-rule="evenodd" clip-rule="evenodd" fill="#CCCCCC" d="M3.1,0.5L11,8.4l8-8l0,0C19.2,0.2,19.6,0,20,0
	c0.8,0,1.5,0.7,1.5,1.5c0,0.4-0.2,0.8-0.4,1l0,0l-9,9h0C11.8,11.8,11.4,12,11,12c0,0,0,0,0,0c0,0,0,0,0,0c-0.4,0-0.8-0.2-1.1-0.5h0
	l-9-9l0,0c-0.3-0.3-0.4-0.6-0.4-1C0.5,0.7,1.2,0,2,0C2.5,0,2.9,0.2,3.1,0.5z"/>
</svg>
