<?xml version="1.0" encoding="utf-8"?>
<!-- Generator: Adobe Illustrator 17.1.0, SVG Export Plug-In . SVG Version: 6.00 Build 0)  -->
<!DOCTYPE svg PUBLIC "-//W3C//DTD SVG 1.1//EN" "http://www.w3.org/Graphics/SVG/1.1/DTD/svg11.dtd">
<svg version="1.1" id="Layer_1" xmlns="http://www.w3.org/2000/svg" xmlns:xlink="http://www.w3.org/1999/xlink" x="0px" y="0px"
	 viewBox="0 0 32 32" enable-background="new 0 0 32 32" xml:space="preserve">
<path fill-rule="evenodd" clip-rule="evenodd" fill="#97C6C6" d="M31.1,25.9l-14.5,6C16.4,32,16.2,32,16,32c-0.2,0-0.4,0-0.6-0.1
	l-14.5-6C0.4,25.7,0,25.1,0,24.5v-23C0,0.7,0.7,0,1.5,0c0.2,0,0.4,0,0.6,0.1h0l0,0c0,0,0,0,0,0L16,5.9l13.9-5.8c0,0,0,0,0,0l0,0l0,0
	C30.1,0,30.3,0,30.5,0C31.3,0,32,0.7,32,1.5v23C32,25.1,31.6,25.7,31.1,25.9z M14.5,8.5L3,3.7v19.8l11.5,4.8V8.5z M29,3.7L17.5,8.5
	v19.8L29,23.5V3.7z M19.9,10.6l5.5-2.5l0,0C25.6,8,25.8,8,26,8c0.8,0,1.5,0.7,1.5,1.5c0,0.6-0.4,1.1-0.9,1.4l0,0l-5.5,2.5l0,0
	c-0.2,0.1-0.4,0.1-0.6,0.1c-0.8,0-1.5-0.7-1.5-1.5C19,11.4,19.4,10.9,19.9,10.6z M19.9,16.1L19.9,16.1l5.5-2.5l0,0
	c0.2-0.1,0.4-0.1,0.6-0.1c0.8,0,1.5,0.7,1.5,1.5c0,0.6-0.4,1.1-0.9,1.4l-5.5,2.5v0C20.9,19,20.7,19,20.5,19c-0.8,0-1.5-0.7-1.5-1.5
	C19,16.9,19.4,16.4,19.9,16.1z M19.9,21.6L19.9,21.6l5.5-2.5l0,0C25.6,19,25.8,19,26,19c0.8,0,1.5,0.7,1.5,1.5
	c0,0.6-0.4,1.1-0.9,1.4l0,0l-5.5,2.5l0,0c-0.2,0.1-0.4,0.1-0.6,0.1c-0.8,0-1.5-0.7-1.5-1.5C19,22.4,19.4,21.9,19.9,21.6z M6,8
	c0.2,0,0.4,0,0.6,0.1l0,0l5.5,2.5l0,0c0.5,0.2,0.9,0.8,0.9,1.4c0,0.8-0.7,1.5-1.5,1.5c-0.2,0-0.4,0-0.6-0.1l0,0l-5.5-2.5l0,0
	c-0.5-0.2-0.9-0.8-0.9-1.4C4.5,8.7,5.2,8,6,8z M6,13.5c0.2,0,0.4,0,0.6,0.1l0,0l5.5,2.5l0,0c0.5,0.2,0.9,0.8,0.9,1.4
	c0,0.8-0.7,1.5-1.5,1.5c-0.2,0-0.4,0-0.6-0.1v0l-5.5-2.5l0,0c-0.5-0.2-0.9-0.8-0.9-1.4C4.5,14.2,5.2,13.5,6,13.5z M6,19
	c0.2,0,0.4,0,0.6,0.1l0,0l5.5,2.5l0,0c0.5,0.2,0.9,0.8,0.9,1.4c0,0.8-0.7,1.5-1.5,1.5c-0.2,0-0.4,0-0.6-0.1l0,0l-5.5-2.5l0,0
	c-0.5-0.2-0.9-0.8-0.9-1.4C4.5,19.7,5.2,19,6,19z"/>
</svg>
