<?xml version="1.0" encoding="utf-8"?>
<!-- Generator: Adobe Illustrator 17.1.0, SVG Export Plug-In . SVG Version: 6.00 Build 0)  -->
<!DOCTYPE svg PUBLIC "-//W3C//DTD SVG 1.1//EN" "http://www.w3.org/Graphics/SVG/1.1/DTD/svg11.dtd">
<svg version="1.1" id="Capa_1" xmlns="http://www.w3.org/2000/svg" xmlns:xlink="http://www.w3.org/1999/xlink" x="0px" y="0px"
	 viewBox="0 0 46.9 46.9" enable-background="new 0 0 46.9 46.9" xml:space="preserve">
<g>
	<g>
		<path fill="#97C6C6" d="M41.4,0H13.8c-0.7,0-1.3,0.6-1.3,1.3v5.3H6.3C5.6,6.7,5,7.2,5,8v34.5c0,0.7,0.6,1.3,1.3,1.3h29.5h5.7
			c0.7,0,1.3-0.6,1.3-1.3V1.3C42.7,0.6,42.1,0,41.4,0z M34.4,41.2H7.6V9.3h26.8V41.2z M40.1,41.2h-3V8c0-0.7-0.6-1.3-1.3-1.3H15.1
			v-4h25L40.1,41.2L40.1,41.2z"/>
		<rect x="9.3" y="12.1" fill="#97C6C6" width="4.3" height="6.6"/>
		<rect x="9.3" y="21.9" fill="#97C6C6" width="4.3" height="6.6"/>
		<rect x="9.3" y="31.8" fill="#97C6C6" width="4.3" height="6.6"/>
		<rect x="15.7" y="12.1" fill="#97C6C6" width="4.3" height="6.6"/>
		<rect x="15.7" y="21.9" fill="#97C6C6" width="4.3" height="6.6"/>
		<rect x="15.7" y="31.8" fill="#97C6C6" width="4.3" height="6.6"/>
		<rect x="22.1" y="12.1" fill="#97C6C6" width="4.3" height="6.6"/>
		<rect x="22.1" y="21.9" fill="#97C6C6" width="4.3" height="6.6"/>
		<rect x="22.1" y="31.8" fill="#97C6C6" width="4.3" height="6.6"/>
		<rect x="28.5" y="12.1" fill="#97C6C6" width="4.3" height="6.6"/>
		<rect x="28.5" y="21.9" fill="#97C6C6" width="4.3" height="6.6"/>
		<rect x="28.5" y="31.8" fill="#97C6C6" width="4.3" height="6.6"/>
		<path fill="#97C6C6" d="M41.4,44.3H5.5c-0.7,0-1.3,0.6-1.3,1.3c0,0.7,0.6,1.3,1.3,1.3h35.9c0.7,0,1.3-0.6,1.3-1.3
			C42.7,44.8,42.1,44.3,41.4,44.3z"/>
	</g>
</g>
</svg>
