<?xml version="1.0" encoding="utf-8"?>
<!-- Generator: Adobe Illustrator 17.1.0, SVG Export Plug-In . SVG Version: 6.00 Build 0)  -->
<!DOCTYPE svg PUBLIC "-//W3C//DTD SVG 1.1//EN" "http://www.w3.org/Graphics/SVG/1.1/DTD/svg11.dtd">
<svg version="1.1" id="Layer_1" xmlns="http://www.w3.org/2000/svg" xmlns:xlink="http://www.w3.org/1999/xlink" x="0px" y="0px"
	 viewBox="0 0 960 560" enable-background="new 0 0 960 560" xml:space="preserve">
<path fill="#97C6C6" d="M762.5,224c-3.5-17.5-10.5-35-17.5-52.5s-14-31.5-24.5-49c-10.5-14-21-28-35-42s-28-24.5-42-35
	S612,28,594.5,21S559.5,7,542,3.5c-14,0-35-3.5-52.5-3.5s-38.5,3.5-56,7s-35,10.5-52.5,17.5c-17.5,3.5-31.5,14-49,24.5
	c-14,10.5-28,21-42,35c-10.5,10.5-21,24.5-31.5,38.5c-10.5,17.5-21,31.5-28,49s-14,35-17.5,52.5c0,17.5-3.5,38.5-3.5,56
	s3.5,38.5,7,56s10.5,35,17.5,52.5s14,31.5,24.5,49c10.5,14,21,28,35,42s28,24.5,42,35s31.5,17.5,49,24.5s35,14,52.5,17.5
	c14,3.5,35,3.5,52.5,3.5s38.5-3.5,56-7s35-10.5,52.5-17.5s31.5-14,49-24.5c14-10.5,28-21,42-35s24.5-28,35-42s17.5-31.5,24.5-49
	s14-35,17.5-52.5c0-14,3.5-31.5,3.5-52.5C769.5,262.5,766,241.5,762.5,224z M727.5,276.5c-3.5,0-84-17.5-168-7c0-3.5-3.5-7-3.5-14
	c-3.5-10.5-10.5-21-14-31.5c94.5-38.5,133-94.5,133-94.5C706.5,168,727.5,220.5,727.5,276.5z M647,101.5c0,0-35,52.5-126,87.5
	c-42-73.5-87.5-136.5-91-140c21-3.5,38.5-7,59.5-7C549,42,605,63,647,101.5z M433.5,49L433.5,49L433.5,49C430,49,433.5,49,433.5,49z
	 M388,63c3.5,7,45.5,66.5,87.5,140C360,231,262,231,255,231C272.5,157.5,321.5,94.5,388,63z M251.5,280c0-3.5,0-3.5,0-7
	c3.5,0,122.5,3.5,245-35c7,14,14,28,17.5,42c0,0-3.5,0-7,3.5C377.5,325.5,311,441,311,441l0,0C272.5,399,251.5,343,251.5,280z
	 M489.5,518c-59.5,0-112-21-154-56c3.5,3.5,7,3.5,7,3.5S388,364,531.5,315l0,0c35,87.5,49,161,52.5,182
	C552.5,514.5,521,518,489.5,518z M622.5,479.5c-3.5-14-14-84-45.5-171.5c77-14,143.5,10.5,150.5,10.5
	C713.5,385,678.5,441,622.5,479.5z"/>
</svg>
