<?xml version="1.0" encoding="utf-8"?>
<!-- Generator: Adobe Illustrator 17.1.0, SVG Export Plug-In . SVG Version: 6.00 Build 0)  -->
<!DOCTYPE svg PUBLIC "-//W3C//DTD SVG 1.1//EN" "http://www.w3.org/Graphics/SVG/1.1/DTD/svg11.dtd">
<svg version="1.1" id="Layer_1" xmlns="http://www.w3.org/2000/svg" xmlns:xlink="http://www.w3.org/1999/xlink" x="0px" y="0px"
	 viewBox="0 0 960 560" enable-background="new 0 0 960 560" xml:space="preserve">
<path fill="#97C6C6" d="M608.5,0c0,31.4,0,90.9,0,90.9s-65.1-7-82.3,17.5c-6.9,14-3.4,56-3.4,84c27.5,0,58.2,0,85.7,0
	c-6.9,35-13.7,59.5-17.2,87.5c-24,0-68.5,0-68.5,0V560c0,0-82.3,0-119.9,0c0-87.5,0-185.5,0-279.9c-20.6,0-34.2,0-51.4,0
	c0-31.4,0-56,0-87.5c17.2,0,30.8,0,51.4,0c0-63,3.4-126,34.2-161C471.4-3.5,505.6,0,608.5,0z"/>
</svg>
