<?xml version="1.0" encoding="utf-8"?>
<!-- Generator: Adobe Illustrator 17.1.0, SVG Export Plug-In . SVG Version: 6.00 Build 0)  -->
<!DOCTYPE svg PUBLIC "-//W3C//DTD SVG 1.1//EN" "http://www.w3.org/Graphics/SVG/1.1/DTD/svg11.dtd">
<svg version="1.1" id="icons" xmlns="http://www.w3.org/2000/svg" xmlns:xlink="http://www.w3.org/1999/xlink" x="0px" y="0px"
	 viewBox="0 0 512 512" enable-background="new 0 0 512 512" xml:space="preserve">
<path fill="#97C6C6" d="M476,472v-24V200c0-22.1-17.9-40-40-40h-8c-4.4,0-8,3.6-8,8h-24v-128c0-1.1-0.2-2.2-0.6-3.2
	c-0.2-0.5-0.6-0.9-0.9-1.3c-0.3-0.4-0.5-0.9-0.8-1.2l-32-32C360.9,1.6,360,1,359,0.6c-1-0.4-2-0.6-3.1-0.6h-232c-4.4,0-8,3.6-8,8
	v160.1H92v0c0-4.4-3.6-8-8-8h-8C54,160,36,178,36,200v248v24c0,22,17.9,39.9,39.8,40c0,0,0,0,0.1,0h360C458,512,476,494.1,476,472
	L476,472z M363.9,27.3l4.7,4.7h-4.7V27.3z M131.9,16h216v24c0,4.4,3.6,8,8,8h24v120l-248,0V16z M52,200c0-13.2,10.8-24,24-24v0
	c0,4.4,3.6,8,8,8h344c4.4,0,8-3.6,8-8v0c13.2,0,24,10.8,24,24v248c0,13.2-10.8,24-24,24H76c-13.2,0-24-10.8-24-24L52,200z M436,496
	H76c-9.9,0-18.5-6.1-22.1-14.7c6.3,4.2,13.8,6.7,22,6.7c0,0,0,0,0.1,0h360c8.2,0,15.8-2.5,22.1-6.7C454.5,489.9,445.9,496,436,496z"
	/>
<path fill="#97C6C6" d="M100,448h64c13.2,0,24-10.8,24-24V224c0-13.2-10.8-24-24-24h-64c-13.2,0-24,10.8-24,24v200
	C76,437.2,86.8,448,100,448z M92,224c0-4.4,3.6-8,8-8h64c4.4,0,8,3.6,8,8v200c0,4.4-3.6,8-8,8h-64c-4.4,0-8-3.6-8-8V224z"/>
<path fill="#97C6C6" d="M292,288c-13.2,0-24,10.8-24,24s10.8,24,24,24s24-10.8,24-24S305.3,288,292,288z M292,320c-4.4,0-8-3.6-8-8
	s3.6-8,8-8s8,3.6,8,8S296.4,320,292,320z"/>
<path fill="#97C6C6" d="M348,288c-13.2,0-24,10.8-24,24s10.8,24,24,24s24-10.8,24-24S361.3,288,348,288z M348,320c-4.4,0-8-3.6-8-8
	s3.6-8,8-8s8,3.6,8,8S352.4,320,348,320z"/>
<path fill="#97C6C6" d="M404,288c-13.2,0-24,10.8-24,24s10.8,24,24,24s24-10.8,24-24S417.2,288,404,288z M404,320c-4.4,0-8-3.6-8-8
	s3.6-8,8-8s8,3.6,8,8S408.4,320,404,320z"/>
<path fill="#97C6C6" d="M292,344c-13.2,0-24,10.8-24,24s10.8,24,24,24s24-10.8,24-24S305.3,344,292,344z M292,376c-4.4,0-8-3.6-8-8
	s3.6-8,8-8s8,3.6,8,8S296.4,376,292,376z"/>
<path fill="#97C6C6" d="M348,344c-13.2,0-24,10.8-24,24s10.8,24,24,24s24-10.8,24-24S361.3,344,348,344z M348,376c-4.4,0-8-3.6-8-8
	s3.6-8,8-8s8,3.6,8,8S352.4,376,348,376z"/>
<path fill="#97C6C6" d="M404,344c-13.2,0-24,10.8-24,24s10.8,24,24,24s24-10.8,24-24S417.2,344,404,344z M404,376c-4.4,0-8-3.6-8-8
	s3.6-8,8-8s8,3.6,8,8S408.4,376,404,376z"/>
<path fill="#97C6C6" d="M292,400c-13.2,0-24,10.8-24,24s10.8,24,24,24s24-10.8,24-24S305.3,400,292,400z M292,432c-4.4,0-8-3.6-8-8
	s3.6-8,8-8s8,3.6,8,8S296.4,432,292,432z"/>
<path fill="#97C6C6" d="M236,288c-13.2,0-24,10.8-24,24s10.8,24,24,24s24-10.8,24-24S249.3,288,236,288L236,288z M236,320
	c-4.4,0-8-3.6-8-8s3.6-8,8-8s8,3.6,8,8S240.4,320,236,320z"/>
<path fill="#97C6C6" d="M236,344c-13.2,0-24,10.8-24,24s10.8,24,24,24s24-10.8,24-24S249.3,344,236,344L236,344z M236,376
	c-4.4,0-8-3.6-8-8s3.6-8,8-8s8,3.6,8,8S240.4,376,236,376z"/>
<path fill="#97C6C6" d="M236,400c-13.2,0-24,10.8-24,24s10.8,24,24,24s24-10.8,24-24S249.3,400,236,400L236,400z M236,432
	c-4.4,0-8-3.6-8-8s3.6-8,8-8s8,3.6,8,8S240.4,432,236,432z"/>
<path fill="#97C6C6" d="M348,400c-13.2,0-24,10.8-24,24s10.8,24,24,24s24-10.8,24-24S361.3,400,348,400z M348,432c-4.4,0-8-3.6-8-8
	s3.6-8,8-8s8,3.6,8,8S352.4,432,348,432z"/>
<path fill="#97C6C6" d="M404,400c-13.2,0-24,10.8-24,24s10.8,24,24,24s24-10.8,24-24S417.2,400,404,400z M404,432c-4.4,0-8-3.6-8-8
	s3.6-8,8-8s8,3.6,8,8S408.4,432,404,432z"/>
<path fill="#97C6C6" d="M132,368c4.4,0,8-3.6,8-8v-72c0-4.4-3.6-8-8-8s-8,3.6-8,8v72C124,364.4,127.6,368,132,368z"/>
<path fill="#97C6C6" d="M220,280h208c4.4,0,8-3.6,8-8v-64c0-4.4-3.6-8-8-8H220c-4.4,0-8,3.6-8,8v64C212,276.4,215.6,280,220,280
	L220,280z M228,216h192v48H228L228,216z"/>
<path fill="#97C6C6" d="M388,232H260c-4.4,0-8,3.6-8,8s3.6,8,8,8h128c4.4,0,8-3.6,8-8S392.4,232,388,232z"/>
<path fill="#97C6C6" d="M332,96H180c-4.4,0-8,3.6-8,8s3.6,8,8,8h152c4.4,0,8-3.6,8-8S336.4,96,332,96z"/>
<path fill="#97C6C6" d="M332,128H180c-4.4,0-8,3.6-8,8s3.6,8,8,8h152c4.4,0,8-3.6,8-8S336.4,128,332,128z"/>
</svg>
