<?xml version="1.0" encoding="utf-8"?>
<!-- Generator: Adobe Illustrator 17.1.0, SVG Export Plug-In . SVG Version: 6.00 Build 0)  -->
<!DOCTYPE svg PUBLIC "-//W3C//DTD SVG 1.1//EN" "http://www.w3.org/Graphics/SVG/1.1/DTD/svg11.dtd">
<svg version="1.1" id="Layer_1" xmlns="http://www.w3.org/2000/svg" xmlns:xlink="http://www.w3.org/1999/xlink" x="0px" y="0px"
	 viewBox="0 0 960 560" enable-background="new 0 0 960 560" xml:space="preserve">
<path fill="#97C6C6" d="M698.4,146.9v95.3h-39.7v-95.3h-99.3v-39.7h99.3V11.9h39.7v95.3h99.3v39.7L698.4,146.9L698.4,146.9z
	 M424.4,47.7C460.1,67.6,480,99.3,480,143c0,35.7-19.9,63.5-47.7,83.4c-27.8,19.9-35.7,27.8-35.7,47.7c0,15.9,27.8,39.7,43.7,51.6
	C484,357.4,496,385.2,496,432.9c0,59.6-55.6,127.1-162.9,127.1c-91.4-3.9-170.7-47.7-170.7-107.2s75.4-119.1,166.8-119.1
	c11.9,0,19.9,0,27.8,0C345,321.7,337,305.9,337,286c0-11.9,3.9-23.8,8-31.8c-3.9,0-11.9,0-15.9,0C253.7,258.1,202,202.6,202,135
	c0-63.5,71.5-123.1,146.9-123.1c43.7,0,166.8,0,166.8,0L480,51.6h-55.6L424.4,47.7L424.4,47.7z M348.9,349.5
	c-63.5,0-123.1,39.7-123.1,87.3s47.7,83.4,111.1,83.4c91.4,0,123.1-31.8,123.1-79.5c0-3.9,0-11.9-3.9-15.9
	c-8-31.8-31.8-43.7-67.6-67.6C376.7,353.5,360.7,349.5,348.9,349.5z M420.3,143c-8-55.6-51.6-99.3-95.3-103.3
	c-43.7,0-71.5,43.7-63.5,99.3c8,55.6,47.7,99.3,91.4,103.3C396.6,242.2,428.3,198.6,420.3,143z"/>
</svg>
