<?xml version="1.0" encoding="utf-8"?>
<!-- Generator: Adobe Illustrator 17.1.0, SVG Export Plug-In . SVG Version: 6.00 Build 0)  -->
<!DOCTYPE svg PUBLIC "-//W3C//DTD SVG 1.1//EN" "http://www.w3.org/Graphics/SVG/1.1/DTD/svg11.dtd">
<svg version="1.1" id="Layer_1" xmlns="http://www.w3.org/2000/svg" xmlns:xlink="http://www.w3.org/1999/xlink" x="0px" y="0px"
	 viewBox="0 0 32 31" enable-background="new 0 0 32 31" xml:space="preserve">
<path fill-rule="evenodd" clip-rule="evenodd" fill="#97C6C6" d="M32,16.5c0,0.8-0.7,1.5-1.5,1.5c-0.4,0-0.8-0.2-1-0.4l0,0L16,4.2
	l0,0l0,0v0L2.6,17.6l0,0C2.3,17.8,1.9,18,1.5,18C0.7,18,0,17.3,0,16.5c0-0.4,0.2-0.8,0.5-1.1L14.9,1c0.3-0.3,0.7-0.5,1.1-0.5l0,0
	l0,0c0,0,0,0,0,0c0,0,0.1,0,0.1,0c0,0,0,0,0,0c0,0,0,0,0.1,0c0,0,0,0,0,0c0.4,0,0.7,0.2,0.9,0.5l0,0L23,6.9V5.5
	C23,4.7,23.7,4,24.5,4C25.3,4,26,4.7,26,5.5v4.4l5.6,5.6l0,0C31.8,15.7,32,16.1,32,16.5z M29,19v4.5v2v4c0,0.8-0.7,1.5-1.5,1.5h-3
	V19h-6v12h-14C3.7,31,3,30.3,3,29.5v-4v-2V19L16,6L29,19z M13.5,19h-6v6h6V19z"/>
</svg>
