<?xml version="1.0" encoding="utf-8"?>
<!-- Generator: Adobe Illustrator 17.1.0, SVG Export Plug-In . SVG Version: 6.00 Build 0)  -->
<!DOCTYPE svg PUBLIC "-//W3C//DTD SVG 1.1//EN" "http://www.w3.org/Graphics/SVG/1.1/DTD/svg11.dtd">
<svg version="1.1" id="Layer_1" xmlns="http://www.w3.org/2000/svg" xmlns:xlink="http://www.w3.org/1999/xlink" x="0px" y="0px"
	 viewBox="0 0 32 32" enable-background="new 0 0 32 32" xml:space="preserve">
<path fill-rule="evenodd" clip-rule="evenodd" fill="#97C6C6" d="M30.5,32h-29C0.7,32,0,31.3,0,30.5v-29C0,0.7,0.7,0,1.5,0h29
	C31.3,0,32,0.7,32,1.5v29C32,31.3,31.3,32,30.5,32z M29,3H3v26h26V3z M6.5,4.5H12h0c0.8,0,1.5,0.7,1.5,1.5S12.8,7.5,12,7.5l0,0H7.5
	V12l0,0c0,0.8-0.7,1.5-1.5,1.5c-0.8,0-1.5-0.7-1.5-1.5l0,0V6.5l0,0v-2H6.5L6.5,4.5z M4.5,20L4.5,20c0-0.8,0.7-1.5,1.5-1.5
	c0.8,0,1.5,0.7,1.5,1.5l0,0v4.5H12v0c0.8,0,1.5,0.7,1.5,1.5c0,0.8-0.7,1.5-1.5,1.5h0H6.5l0,0h-2v-2l0,0V20z M20,4.5L20,4.5h5.5l0,0
	h2v2l0,0V12l0,0c0,0.8-0.7,1.5-1.5,1.5c-0.8,0-1.5-0.7-1.5-1.5l0,0V7.5H20l0,0c-0.8,0-1.5-0.7-1.5-1.5S19.2,4.5,20,4.5z M20,24.5
	L20,24.5l4.5,0V20l0,0c0-0.8,0.7-1.5,1.5-1.5c0.8,0,1.5,0.7,1.5,1.5l0,0v5.5l0,0v2h-2l0,0H20h0c-0.8,0-1.5-0.7-1.5-1.5
	C18.5,25.2,19.2,24.5,20,24.5z"/>
</svg>
