<?xml version="1.0" encoding="utf-8"?>
<!-- Generator: Adobe Illustrator 17.1.0, SVG Export Plug-In . SVG Version: 6.00 Build 0)  -->
<!DOCTYPE svg PUBLIC "-//W3C//DTD SVG 1.1//EN" "http://www.w3.org/Graphics/SVG/1.1/DTD/svg11.dtd">
<svg version="1.1" id="Layer_1" xmlns="http://www.w3.org/2000/svg" xmlns:xlink="http://www.w3.org/1999/xlink" x="0px" y="0px"
	 viewBox="0 0 960 560" enable-background="new 0 0 960 560" xml:space="preserve">
<path fill="#97C6C6" d="M690,560H270c-38.5,0-70-31.5-70-70V70c0-38.5,31.5-70,70-70h420c38.5,0,70,31.5,70,70v420
	C760,528.5,728.5,560,690,560z M480,171.5c-42,0-80.5,24.5-98,63l0,0l0,0c0,3.5-3.5,3.5-3.5,7v3.5c-3.5,3.5-3.5,7-3.5,10.5v3.5
	c0,3.5,0,7,0,7v3.5c0,3.5,0,7,0,10.5c0,59.5,49,108.5,108.5,108.5S592,339.5,592,280c0-3.5,0-7,0-10.5V266c0-3.5,0-7,0-7v-3.5
	c0-3.5,0-3.5-3.5-7V245c0-3.5-3.5-3.5-3.5-7l0,0l0,0C560.5,199.5,522,171.5,480,171.5z M697,91c0-14-14-28-28-28h-56
	c-14,0-28,14-28,28v56c0,17.5,14,28,28,28h56c14,0,28-14,28-28V91L697,91z M697,234.5h-52.5c3.5,14,7,28,7,45.5
	c0,94.5-77,171.5-171.5,171.5s-171.5-77-171.5-171.5c0-17.5,3.5-31.5,7-45.5H263V469c0,14,14,28,28,28h378c14,0,28-14,28-28V234.5z"
	/>
<line fill="none" x1="0" y1="105" x2="960" y2="105"/>
</svg>
