<?xml version="1.0" encoding="utf-8"?>
<!-- Generator: Adobe Illustrator 17.1.0, SVG Export Plug-In . SVG Version: 6.00 Build 0)  -->
<!DOCTYPE svg PUBLIC "-//W3C//DTD SVG 1.1//EN" "http://www.w3.org/Graphics/SVG/1.1/DTD/svg11.dtd">
<svg version="1.1" id="Layer_1" xmlns="http://www.w3.org/2000/svg" xmlns:xlink="http://www.w3.org/1999/xlink" x="0px" y="0px"
	 viewBox="0 0 32 32" enable-background="new 0 0 32 32" xml:space="preserve">
<path fill-rule="evenodd" clip-rule="evenodd" fill="#97C6C6" d="M30.5,32h-29C0.7,32,0,31.3,0,30.5v-29C0,0.7,0.7,0,1.5,0h29
	C31.3,0,32,0.7,32,1.5v29C32,31.3,31.3,32,30.5,32z M29,3H3v26h26V3z M5.2,16.2L5.2,16.2l4-2.5l0,0c0.2-0.1,0.5-0.2,0.8-0.2
	c0.3,0,0.6,0.1,0.8,0.3l0,0l6.6,4.4l7.6-5.4c0.2-0.2,0.6-0.3,0.9-0.3c0.8,0,1.5,0.7,1.5,1.5c0,0.5-0.2,0.9-0.6,1.2l0,0l-8.5,6l0,0
	c-0.2,0.2-0.6,0.3-0.9,0.3c-0.3,0-0.6-0.1-0.9-0.3L10,16.8l-3.1,2C6.6,18.9,6.3,19,6,19c-0.8,0-1.5-0.7-1.5-1.5
	C4.5,17,4.8,16.5,5.2,16.2z"/>
</svg>
