<?xml version="1.0" encoding="utf-8"?>
<!-- Generator: Adobe Illustrator 17.1.0, SVG Export Plug-In . SVG Version: 6.00 Build 0)  -->
<!DOCTYPE svg PUBLIC "-//W3C//DTD SVG 1.1//EN" "http://www.w3.org/Graphics/SVG/1.1/DTD/svg11.dtd">
<svg version="1.1" id="Layer_1" xmlns="http://www.w3.org/2000/svg" xmlns:xlink="http://www.w3.org/1999/xlink" x="0px" y="0px"
	 viewBox="0 0 18 18" enable-background="new 0 0 18 18" xml:space="preserve">
<path fill-rule="evenodd" clip-rule="evenodd" fill="#FFFFFF" d="M17.3,15c0.3,0.3,0.5,0.7,0.5,1.2c0,0.9-0.7,1.6-1.6,1.6
	c-0.5,0-0.9-0.2-1.2-0.5l0,0l-4.8-4.8c-1,0.6-2.1,0.9-3.3,0.9c-3.6,0-6.6-3-6.6-6.6c0-3.6,3-6.6,6.6-6.6c3.6,0,6.6,3,6.6,6.6
	c0,1.2-0.3,2.4-0.9,3.3L17.3,15L17.3,15z M6.8,1.8c-2.7,0-5,2.2-5,5s2.2,5,5,5c2.7,0,4.9-2.2,4.9-5S9.5,1.8,6.8,1.8z"/>
</svg>
