<?xml version="1.0" encoding="utf-8"?>
<!-- Generator: Adobe Illustrator 17.1.0, SVG Export Plug-In . SVG Version: 6.00 Build 0)  -->
<!DOCTYPE svg PUBLIC "-//W3C//DTD SVG 1.1//EN" "http://www.w3.org/Graphics/SVG/1.1/DTD/svg11.dtd">
<svg version="1.1" id="Layer_1" xmlns="http://www.w3.org/2000/svg" xmlns:xlink="http://www.w3.org/1999/xlink" x="0px" y="0px"
	 viewBox="0 0 960 560" enable-background="new 0 0 960 560" xml:space="preserve">
<path fill="#97C6C6" d="M480,555.7c0,0-206.8-230.5-206.8-344.6S365.8,4.3,480,4.3s206.7,92.6,206.7,206.8S480,555.7,480,555.7z
	 M480,73.2c-75.4,0-137.8,62.5-137.8,137.8S404.7,348.9,480,348.9s137.7-62.5,137.7-137.8S555.5,73.2,480,73.2z M480,280
	c-38.8,0-68.9-30.2-68.9-68.9s30.2-68.9,68.9-68.9s68.9,30.2,68.9,68.9S518.8,280,480,280z"/>
</svg>
