<?xml version="1.0" encoding="utf-8"?>
<!-- Generator: Adobe Illustrator 17.1.0, SVG Export Plug-In . SVG Version: 6.00 Build 0)  -->
<!DOCTYPE svg PUBLIC "-//W3C//DTD SVG 1.1//EN" "http://www.w3.org/Graphics/SVG/1.1/DTD/svg11.dtd">
<svg version="1.1" id="Layer_1" xmlns="http://www.w3.org/2000/svg" xmlns:xlink="http://www.w3.org/1999/xlink" x="0px" y="0px"
	 viewBox="0 0 960 560" enable-background="new 0 0 960 560" xml:space="preserve">
<path fill="#97C6C6" d="M443.3,362.9c-3.5,17.5-10.5,38.4-14,55.9s-10.5,38.4-14,52.4c-10.5,28-24.5,55.9-45.4,76.8
	c-10.5,17.5-10.5,10.5-14,10.5s-3.5-3.5-3.5-7c-3.5-21,0-48.9,0-73.3c0-28,7-52.4,14-76.8c10.5-45.4,21-87.3,31.4-132.7
	c0-3.5,3.5-7,3.5-10.5c-7-14-10.5-24.5-10.5-38.4s0-28,3.5-41.9c7-24.5,21-41.9,41.9-52.4c14-3.5,28-3.5,38.4,3.5
	c10.5,7,17.5,14,17.5,28c3.5,14,0,28,0,41.9c-7,28-17.5,45.4-24.5,73.3c-3.5,10.5-7,24.5-3.5,38.4c3.5,14,10.5,21,21,28
	c7,7,17.5,10.5,34.9,10.5c28,0,45.4-17.5,59.3-34.9c21-24.5,31.4-59.3,34.9-101.2c0-14,3.5-28,0-45.4c0-28-10.5-48.9-24.5-66.3
	c-14-17.5-31.4-31.4-55.9-38.4c-21-7-52.4-10.5-80.3-3.5c-48.9,7-87.3,34.9-108.2,76.8c-10.5,21-17.5,41.9-17.5,73.3
	c0,24.5,7,41.9,14,55.9c3.5,3.5,7,7,10.5,10.5c3.5,7,0,17.5-3.5,24.5c0,10.5,0,24.5-10.5,24.5c-3.5,0-10.5-3.5-14-7
	c-31.4-14-48.9-41.9-55.9-80.3c-3.5-21-3.5-48.9,0-69.8c7-21,14-41.9,21-55.9c17.5-31.4,45.4-59.3,76.8-76.8
	c24.5-17.5,52.4-28,83.8-31.4c10.5,0,24.5-3.5,34.9-3.5c34.9,0,69.8,7,94.2,17.5c28,10.5,48.9,28,66.3,45.4
	c17.5,21,31.4,41.9,38.4,73.3c7,17.5,10.5,31.4,10.5,52.4c0,17.5-3.5,34.9-7,52.4c-10.5,62.8-38.4,111.7-83.8,139.7
	c-10.5,7-24.5,14-38.4,17.5s-31.4,7-48.9,7s-31.4-7-41.9-14C460.8,383.9,450.3,376.9,443.3,362.9z"/>
</svg>
