<?xml version="1.0" encoding="utf-8"?>
<!-- Generator: Adobe Illustrator 17.1.0, SVG Export Plug-In . SVG Version: 6.00 Build 0)  -->
<!DOCTYPE svg PUBLIC "-//W3C//DTD SVG 1.1//EN" "http://www.w3.org/Graphics/SVG/1.1/DTD/svg11.dtd">
<svg version="1.1" id="Layer_1" xmlns="http://www.w3.org/2000/svg" xmlns:xlink="http://www.w3.org/1999/xlink" x="0px" y="0px"
	 viewBox="0 0 18 15" enable-background="new 0 0 18 15" xml:space="preserve">
<path fill-rule="evenodd" clip-rule="evenodd" fill="#FFFFFF" d="M17.7,3.7L17.7,3.7l-2.5,5.5h0c-0.1,0.3-0.4,0.5-0.7,0.5l0,0
	l-7.1,0.5l0.4,1.2h7.8c0.9,0,1.6,0.7,1.6,1.7c0,0.9-0.7,1.6-1.6,1.6c-0.9,0-1.7-0.7-1.7-1.6H6.3c0,0.9-0.7,1.6-1.7,1.6
	S3,13.9,3,12.9c0-0.9,0.7-1.7,1.6-1.7h1.5L2.9,2.2H1c-0.5,0-0.8-0.4-0.8-0.8S0.6,0.6,1,0.6h2.5c0.4,0,0.7,0.2,0.8,0.6l0,0l0.5,1.4
	H17c0.5,0,0.8,0.4,0.8,0.8C17.8,3.4,17.8,3.6,17.7,3.7z M5.3,4.1l1.5,4.4L14,8l1.7-3.9H5.3z"/>
</svg>
