<?xml version="1.0" encoding="utf-8"?>
<!-- Generator: Adobe Illustrator 17.1.0, SVG Export Plug-In . SVG Version: 6.00 Build 0)  -->
<!DOCTYPE svg PUBLIC "-//W3C//DTD SVG 1.1//EN" "http://www.w3.org/Graphics/SVG/1.1/DTD/svg11.dtd">
<svg version="1.1" id="Layer_1" xmlns="http://www.w3.org/2000/svg" xmlns:xlink="http://www.w3.org/1999/xlink" x="0px" y="0px"
	 viewBox="0 0 17 15" enable-background="new 0 0 17 15" xml:space="preserve">
<path fill-rule="evenodd" clip-rule="evenodd" fill="#97C6C6" d="M9.4,12.4c-0.6,0-1.1-0.2-1.7-0.2c-2.2,2.8-5.6,2.2-5.6,2.2
	c2.4-1.2,2.4-3.1,2-3.3C2.1,9.9,1,8.2,1,6.3c0-3.4,3.7-6.1,8.4-6.1c4.7,0,7.6,2.7,7.6,6.1C17,9.6,14.1,12.4,9.4,12.4z M5.2,4.9
	c-0.8,0-1.5,0.7-1.5,1.5s0.7,1.5,1.5,1.5c0.8,0,1.5-0.7,1.5-1.5S6.1,4.9,5.2,4.9z M9,4.9c-0.8,0-1.5,0.7-1.5,1.5S8.2,7.9,9,7.9
	c0.8,0,1.5-0.7,1.5-1.5S9.8,4.9,9,4.9z M12.7,4.9c-0.8,0-1.5,0.7-1.5,1.5s0.7,1.5,1.5,1.5c0.8,0,1.5-0.7,1.5-1.5S13.6,4.9,12.7,4.9z
	"/>
</svg>
