<?xml version="1.0" encoding="utf-8"?>
<!-- Generator: Adobe Illustrator 17.1.0, SVG Export Plug-In . SVG Version: 6.00 Build 0)  -->
<!DOCTYPE svg PUBLIC "-//W3C//DTD SVG 1.1//EN" "http://www.w3.org/Graphics/SVG/1.1/DTD/svg11.dtd">
<svg version="1.1" id="Layer_1" xmlns="http://www.w3.org/2000/svg" xmlns:xlink="http://www.w3.org/1999/xlink" x="0px" y="0px"
	 viewBox="0 0 960 560" enable-background="new 0 0 960 560" xml:space="preserve">
<path fill="#97C6C6" d="M644.7,528.4C621.6,539,601.9,546,585.4,553c-19.8,7-39.5,7-59.3,7c-23.1,0-39.5-3.5-56-10.5
	c-19.8-7-32.9-14-46.1-28c-13.2-10.5-23.1-24.5-26.4-38.5c-6.6-14-6.6-31.4-6.6-59.5V231h-75.8v-80.5c19.8-7,46.1-17.5,59.3-31.4
	c16.5-14,26.4-28,36.2-49c9.9-17.5,16.5-42,19.8-70h75.8v129.5h121.9V231H503.1v143.5c0,31.4,0,52.5,3.3,59.5
	c3.3,10.5,9.9,17.5,19.8,24.5c13.2,7,26.4,10.5,39.5,10.5c26.4,0,52.7-10.5,79.1-28L644.7,528.4L644.7,528.4z"/>
</svg>
