<?xml version="1.0" encoding="utf-8"?>
<!-- Generator: Adobe Illustrator 17.1.0, SVG Export Plug-In . SVG Version: 6.00 Build 0)  -->
<!DOCTYPE svg PUBLIC "-//W3C//DTD SVG 1.1//EN" "http://www.w3.org/Graphics/SVG/1.1/DTD/svg11.dtd">
<svg version="1.1" id="Layer_1" xmlns="http://www.w3.org/2000/svg" xmlns:xlink="http://www.w3.org/1999/xlink" x="0px" y="0px"
	 viewBox="0 0 960 560" enable-background="new 0 0 960 560" xml:space="preserve">
<path fill="#97C6C6" d="M596,20c52,0,76,16,104,40c20,0,52-16,68-24c4-4,12-4,16-8c-8,24-24,48-44,60c-4,4-8,8-16,12l0,0
	c28,0,52-12,76-20l0,0c-12,20-28,36-44,52c-8,4-12,12-20,16c0,32,0,60-8,84c-32,148-120,248-256,292c-48,16-128,20-184,8
	c-28-8-52-16-76-24c-12-4-24-12-36-20c-8-4-12-4-16-8c12,0,28,4,40,0c16,0,28,0,40,0c28-8,56-16,80-28c12-8,28-12,36-24
	c-16,0-28-4-40-8c-44-16-68-44-84-84c12,0,48,4,60-4c-16,0-32-12-44-16c-36-20-64-56-64-112c4,0,12,4,16,4c8,4,16,4,28,8
	c4,0,12,4,16,0l0,0c-8-4-16-8-24-20c-24-24-44-68-28-116c0-12,8-24,12-36l0,0c4,4,8,8,12,12c12,12,24,28,40,36c48,36,92,60,160,76
	c16,4,36,8,60,8c-8-12-4-40,0-56c12-40,36-72,76-88c8-4,20-8,28-8C584,20,588,20,596,20z"/>
</svg>
