<?xml version="1.0" encoding="utf-8"?>
<!-- Generator: Adobe Illustrator 17.1.0, SVG Export Plug-In . SVG Version: 6.00 Build 0)  -->
<!DOCTYPE svg PUBLIC "-//W3C//DTD SVG 1.1//EN" "http://www.w3.org/Graphics/SVG/1.1/DTD/svg11.dtd">
<svg version="1.1" id="Layer_1" xmlns="http://www.w3.org/2000/svg" xmlns:xlink="http://www.w3.org/1999/xlink" x="0px" y="0px"
	 viewBox="0 0 32 24" enable-background="new 0 0 32 24" xml:space="preserve">
<path fill-rule="evenodd" clip-rule="evenodd" fill="#FFFFFF" d="M31.9,22.5C31.9,22.5,32,22.5,31.9,22.5c0,0.6-0.4,1-1,1h-7.4
	c0.6-0.1,1-0.6,1-1.2c0,0,0,0,0,0h0c0,0,0-4.5-3.3-6.1c-1.4-0.7-1.5-0.6-2.2-0.7l0-2c0,0-0.8-0.6-1-2.4c-0.5,0.1-0.6-0.6-0.7-1
	c0-0.4-0.3-1.8,0.3-1.7c-0.1-0.9-0.2-1.7-0.2-2.1c0.1-1.5,1.6-3.1,3.9-3.2c2.6,0.1,3.7,1.7,3.8,3.2c0,0.4-0.1,1.2-0.2,2.1
	c0.6-0.1,0.3,1.2,0.3,1.7c0,0.4-0.2,1.1-0.7,1c-0.2,1.8-1,2.4-1,2.4l0,1.9c0,0,0.5,0.3,2.5,1.1c2.1,0.9,1.4,0.2,3.1,1
	C32,18.9,32,22.5,31.9,22.5L31.9,22.5z M17,15.8c2.3,0.9,1.6,0.2,3.4,1.1c2.9,1.4,2.9,5.4,2.9,5.4h0c0,0,0,0,0,0
	c0,0.6-0.5,1.1-1.1,1.1H1.1C0.5,23.5,0,23,0,22.4c0,0,0,0,0,0h0c0,0,0-4,2.9-5.4c1.8-0.9,1.1-0.2,3.4-1.1c2.3-0.9,2.8-1.3,2.8-1.3
	l0-2.2c0,0-0.8-0.6-1.1-2.7C7.5,10,7.3,9.2,7.3,8.7c0-0.5-0.3-2,0.3-1.8C7.5,5.9,7.4,5,7.4,4.5C7.6,2.8,9.2,1.1,11.7,1
	c2.9,0.1,4.1,1.9,4.2,3.5c0,0.5-0.1,1.4-0.2,2.4c0.6-0.1,0.4,1.3,0.3,1.8c0,0.5-0.2,1.3-0.7,1.1c-0.3,2-1.1,2.7-1.1,2.7l0,2.1
	C14.2,14.6,14.8,14.9,17,15.8z"/>
</svg>
