<?xml version="1.0" encoding="utf-8"?>
<!-- Generator: Adobe Illustrator 17.1.0, SVG Export Plug-In . SVG Version: 6.00 Build 0)  -->
<!DOCTYPE svg PUBLIC "-//W3C//DTD SVG 1.1//EN" "http://www.w3.org/Graphics/SVG/1.1/DTD/svg11.dtd">
<svg version="1.1" id="Layer_1" xmlns="http://www.w3.org/2000/svg" xmlns:xlink="http://www.w3.org/1999/xlink" x="0px" y="0px"
	 viewBox="27.7 0 904.9 529.2" enable-background="new 27.7 0 904.9 529.2" xml:space="preserve">
<path fill="#97C6C6" d="M932.7,270.7L932.7,270.7L932.7,270.7L932.7,270.7L932.7,270.7C932.7,275.3,932.7,275.3,932.7,270.7
	c0,9.3-4.7,18.7-9.3,23.3c-9.3,9.3-18.7,23.3-32.7,32.7c-56,56-121.3,107.3-191.3,144.7c-46.7,23.3-93.3,42-144.7,51.3
	c-56,9.3-112,9.3-168-4.7c-93.3-18.7-182-70-256.7-135.3c-32.7-23.3-65.3-56-93.3-88.7c-14-14-14-32.7,0-46.7
	c9.3-14,18.7-28,28-37.3C120.7,154,186,102.7,256,65.3c46.7-23.3,93.3-42,144.7-51.3c56-9.3,112-9.3,168,4.7
	c93.3,18.7,182,70,256.7,135.3c37.3,28,70,60.7,98,93.3c4.7,4.7,9.3,14,9.3,18.7l0,0l0,0l0,0C932.7,266,932.7,266,932.7,270.7
	C932.7,266,932.7,266,932.7,270.7C932.7,266,932.7,266,932.7,270.7L932.7,270.7z M480,88.7c-93.3,0-168,74.7-168,168
	s74.7,168,168,168s168-74.7,168-168C648,168,573.3,88.7,480,88.7z M480,345.3c-46.7,0-84-37.3-84-84s37.3-84,84-84s84,37.3,84,84
	S526.7,345.3,480,345.3z"/>
</svg>
